# xmcd
#
# Track frame offsets: 
#        150
#        16757
#        35403
#        54308
#        74879
#        91614
#        105013
#        124303
#        146822
#        161902
#        181257
#        199371
#        220340
#        240232
#        257751
#        272599
#        288903
#        303191
#
# Disc length: 4306 seconds
#
# Revision: 6
# Processed by: cddbd v1.5.2PL0 Copyright (c) Steve Scherf et al.
# Submitted via: ExactAudioCopy v1.3
#
DISCID=fc10d012
DTITLE=Various Artist - Greatest Hits
DYEAR=1999
DGENRE=Pop
TTITLE0=Anna Jantar - Wielka Dama Tańczy Sama
TTITLE1=Irena Jarocka - Beatelmania Story
TTITLE2=Krzysztof Krawczyk - To Co Nam Dał Nam Świat
TTITLE3=Halina Frąckowiak - Tin Pan Alley
TTITLE4=Eleni - Muzyka Twoje Imie Ma
TTITLE5=Anna Jantar - Tyle Słońca W Całym Mieście
TTITLE6=Felicjan Andrzejczak - Trzeci Akt
TTITLE7=Halina Frąckowiak - Anna Już Nie Mieszka Tu
TTITLE8=Felicjan Andrzejczak - Siedem Nocy
TTITLE9=Halina Frąckowiak - Papierowy Ksieżyc
TTITLE10=Monika Borys - Nie Masz Prawa
TTITLE11=Natalia Kukulska - Głodne Lata
TTITLE12=Halina Frąckowiak - Serce Gwiazd
TTITLE13=Monika Borys - Co Ty Królu Złoty
TTITLE14=Anna Jantar, Bogusław Mec - Pozwolił Nam Los
TTITLE15=Anna Jantar - Moje Jedyne Marzenie
TTITLE16=Anna Jantar - My Baby Waits For Rainy Days
TTITLE17=Krzysztof Krawczyk - Życia Mała Garść
EXTD=YEAR: 1999
EXTT0=
EXTT1=
EXTT2=
EXTT3=
EXTT4=
EXTT5=
EXTT6=
EXTT7=
EXTT8=
EXTT9=
EXTT10=
EXTT11=
EXTT12=
EXTT13=
EXTT14=
EXTT15=
EXTT16=
EXTT17=
PLAYORDER=
